<svg width="23" height="21" viewBox="0 0 23 21" fill="none" xmlns="http://www.w3.org/2000/svg">
<path opacity="0.5" d="M22.5938 21H21.0938C21.0938 20.3828 20.9766 19.8008 20.7422 19.2539C20.5078 18.707 20.1875 18.2305 19.7812 17.8242C19.375 17.418 18.8945 17.0938 18.3398 16.8516C17.7852 16.6094 17.2031 16.4922 16.5938 16.5C15.9688 16.5 15.3828 16.6172 14.8359 16.8516C14.2891 17.0859 13.8125 17.4062 13.4062 17.8125C13 18.2188 12.6797 18.6953 12.4453 19.2422C12.2109 19.7891 12.0938 20.375 12.0938 21H10.5938C10.5938 20.4297 10.6719 19.8789 10.8281 19.3477C10.9844 18.8164 11.207 18.3164 11.4961 17.8477C11.7852 17.3789 12.1328 16.957 12.5391 16.582C12.9453 16.207 13.4062 15.8867 13.9219 15.6211C13.3359 15.1836 12.8867 14.6562 12.5742 14.0391C12.2617 13.4219 12.1016 12.7422 12.0938 12C12.0938 11.375 12.2109 10.7891 12.4453 10.2422C12.6797 9.69531 13 9.21875 13.4062 8.8125C13.8125 8.40625 14.2891 8.08594 14.8359 7.85156C15.3828 7.61719 15.9688 7.5 16.5938 7.5C17.2109 7.5 17.793 7.61719 18.3398 7.85156C18.8867 8.08594 19.3633 8.40625 19.7695 8.8125C20.1758 9.21875 20.5 9.69922 20.7422 10.2539C20.9844 10.8086 21.1016 11.3906 21.0938 12C21.0938 12.7266 20.9375 13.4023 20.625 14.0273C20.3125 14.6523 19.8594 15.1836 19.2656 15.6211C19.7734 15.8711 20.2305 16.1836 20.6367 16.5586C21.043 16.9336 21.3945 17.3594 21.6914 17.8359C21.9883 18.3125 22.2109 18.8164 22.3594 19.3477C22.5078 19.8789 22.5859 20.4297 22.5938 21ZM19.5938 12C19.5938 11.5859 19.5156 11.1992 19.3594 10.8398C19.2031 10.4805 18.9883 10.1602 18.7148 9.87891C18.4414 9.59766 18.125 9.38281 17.7656 9.23438C17.4062 9.08594 17.0156 9.00781 16.5938 9C16.1797 9 15.793 9.07812 15.4336 9.23438C15.0742 9.39062 14.7539 9.60547 14.4727 9.87891C14.1914 10.1523 13.9766 10.4688 13.8281 10.8281C13.6797 11.1875 13.6016 11.5781 13.5938 12C13.5938 12.4141 13.6719 12.8008 13.8281 13.1602C13.9844 13.5195 14.1992 13.8398 14.4727 14.1211C14.7461 14.4023 15.0625 14.6172 15.4219 14.7656C15.7812 14.9141 16.1719 14.9922 16.5938 15C17.0078 15 17.3945 14.9219 17.7539 14.7656C18.1133 14.6094 18.4336 14.3945 18.7148 14.1211C18.9961 13.8477 19.2109 13.5312 19.3594 13.1719C19.5078 12.8125 19.5859 12.4219 19.5938 12ZM12.082 7.5H7.72266L10.2539 16.3594C10.0508 16.6484 9.87109 16.9336 9.71484 17.2148C9.55859 17.4961 9.41406 17.8047 9.28125 18.1406L0 6.71484L6.29297 0H14.8945L21.1875 6.71484L20.7773 7.21875C20.4492 6.94531 20.1172 6.70703 19.7812 6.50391C19.4453 6.30078 19.0742 6.13281 18.668 6H18.7617L14.5547 1.5H13.0547L14.7188 5.94141C14.2031 6.08203 13.7305 6.28125 13.3008 6.53906C12.8711 6.79688 12.4648 7.11328 12.082 7.48828V7.5ZM11.6953 1.5H9.49219L7.80469 6H13.3828L11.6953 1.5ZM6.63281 1.5L2.42578 6H6.44531L8.13281 1.5H6.63281ZM8.625 15.3164L6.38672 7.5H2.27344L8.625 15.3164Z" fill="white"/>
</svg>
